<?xml version="1.0" encoding="UTF-8" standalone="no"?>
<!-- Created with Inkscape (http://www.inkscape.org/) --><svg height="900.00000" id="svg1" version="1.0" width="375.00000" x="0.0000000" xmlns="http://www.w3.org/2000/svg" xmlns:svg="http://www.w3.org/2000/svg" xmlns:xlink="http://www.w3.org/1999/xlink" y="0.0000000">
  <metadata>
    <rdf:RDF xmlns:cc="http://web.resource.org/cc/" xmlns:dc="http://purl.org/dc/elements/1.1/" xmlns:rdf="http://www.w3.org/1999/02/22-rdf-syntax-ns#">
      <cc:Work rdf:about="">
        <dc:title>bass-guitar</dc:title>
        <dc:description>A blue bass guitar</dc:description>
        <dc:subject>
          <rdf:Bag>
            <rdf:li>bass</rdf:li>
            <rdf:li>guitar</rdf:li>
            <rdf:li>electric</rdf:li>
            <rdf:li>music</rdf:li>
          </rdf:Bag>
        </dc:subject>
        <dc:publisher>
          <cc:Agent rdf:about="http://www.openclipart.org/">
            <dc:title>Open Clip Art Library</dc:title>
          </cc:Agent>
        </dc:publisher>
        <dc:creator>
          <cc:Agent>
            <dc:title>A.J. Ashton</dc:title>
          </cc:Agent>
        </dc:creator>
        <dc:rights>
          <cc:Agent>
            <dc:title>A.J. Ashton</dc:title>
          </cc:Agent>
        </dc:rights>
        <dc:date></dc:date>
        <dc:format>image/svg+xml</dc:format>
        <dc:type rdf:resource="http://purl.org/dc/dcmitype/StillImage"/>
        <cc:license rdf:resource="http://web.resource.org/cc/PublicDomain"/>
        <dc:language>en</dc:language>
      </cc:Work>
      <cc:License rdf:about="http://web.resource.org/cc/PublicDomain">
        <cc:permits rdf:resource="http://web.resource.org/cc/Reproduction"/>
        <cc:permits rdf:resource="http://web.resource.org/cc/Distribution"/>
        <cc:permits rdf:resource="http://web.resource.org/cc/DerivativeWorks"/>
      </cc:License>
    </rdf:RDF>
  </metadata>
  <defs id="defs3">
    <linearGradient id="linearGradient2320">
      <stop id="stop2322" offset="0.0000000" style="stop-color:#ffffff;stop-opacity:1.0000000;"/>
      <stop id="stop2324" offset="1.0000000" style="stop-color:#000000;stop-opacity:1.0000000;"/>
    </linearGradient>
    <linearGradient id="linearGradient2733">
      <stop id="stop2735" offset="0.0000000" style="stop-color:#59d2e7;stop-opacity:1.0000000;"/>
      <stop id="stop2737" offset="1.0000000" style="stop-color:#59d2e7;stop-opacity:0.0000000;"/>
    </linearGradient>
    <linearGradient id="linearGradient2708">
      <stop id="stop2710" offset="0.0000000" style="stop-color:#cb9a6d;stop-opacity:1.0000000;"/>
      <stop id="stop2712" offset="1.0000000" style="stop-color:#e1bb82;stop-opacity:1.0000000;"/>
    </linearGradient>
    <linearGradient id="linearGradient2536">
      <stop id="stop2538" offset="0.0000000" style="stop-color:#7c4f40;stop-opacity:1.0000000;"/>
      <stop id="stop2540" offset="1.0000000" style="stop-color:#92634c;stop-opacity:1.0000000;"/>
    </linearGradient>
    <linearGradient id="linearGradient2520">
      <stop id="stop2522" offset="0.0000000" style="stop-color:#000000;stop-opacity:1.0000000;"/>
      <stop id="stop2524" offset="1.0000000" style="stop-color:#d5d5d5;stop-opacity:1.0000000;"/>
    </linearGradient>
    <linearGradient id="linearGradient2414">
      <stop id="stop2416" offset="0.0000000" style="stop-color:#000000;stop-opacity:1.0000000;"/>
      <stop id="stop2418" offset="1.0000000" style="stop-color:#000000;stop-opacity:0.0000000;"/>
    </linearGradient>
    <linearGradient id="linearGradient2386">
      <stop id="stop2388" offset="0.0000000" style="stop-color:#ffffff;stop-opacity:1.0000000;"/>
      <stop id="stop2390" offset="1.0000000" style="stop-color:#ffffff;stop-opacity:0.0000000;"/>
    </linearGradient>
    <radialGradient cx="366.86108" cy="895.19415" fx="366.86108" fy="895.19415" gradientTransform="matrix(1.000000,4.162298e-18,1.707196e-18,0.140468,-2.446826e-13,769.4478)" gradientUnits="userSpaceOnUse" id="radialGradient2420" r="121.74413" xlink:href="#linearGradient2414"/>
    <radialGradient cx="366.86108" cy="895.19415" fx="366.86108" fy="895.19415" gradientTransform="matrix(1.000000,-1.192638e-16,-2.241497e-18,0.140468,5.832919e-13,769.4478)" gradientUnits="userSpaceOnUse" id="radialGradient2424" r="121.74413" xlink:href="#linearGradient2414"/>
    <linearGradient gradientTransform="translate(-211.0805,-54.00000)" gradientUnits="userSpaceOnUse" id="linearGradient2434" x1="414.01245" x2="407.32407" xlink:href="#linearGradient2414" y1="899.48071" y2="863.57288"/>
    <radialGradient cx="666.37537" cy="668.02295" fx="666.37537" fy="668.02295" gradientTransform="matrix(0.241750,-0.243165,6.296001e-2,6.259356e-2,-7.860454,705.1900)" gradientUnits="userSpaceOnUse" id="radialGradient2468" r="112.68057" xlink:href="#linearGradient2386"/>
    <radialGradient cx="1070.8191" cy="669.56409" fx="1070.8191" fy="669.56409" gradientTransform="matrix(0.179597,4.535263e-2,-0.144549,0.572417,135.2712,202.8833)" gradientUnits="userSpaceOnUse" id="radialGradient2478" r="112.68057" xlink:href="#linearGradient2414"/>
    <radialGradient cx="516.11792" cy="572.52667" fx="516.11792" fy="572.52667" gradientTransform="matrix(6.525663e-2,3.278516e-2,-0.250133,0.497873,179.2926,178.7741)" gradientUnits="userSpaceOnUse" id="radialGradient2488" r="112.68057" xlink:href="#linearGradient2386"/>
    <linearGradient gradientTransform="translate(-211.0805,-54.00000)" gradientUnits="userSpaceOnUse" id="linearGradient2500" x1="482.54282" x2="420.35352" xlink:href="#linearGradient2414" y1="1218.2003" y2="820.87982"/>
    <radialGradient cx="719.60638" cy="-1006.1677" fx="719.60638" fy="-1006.1677" gradientTransform="matrix(3.232290,0.943098,-0.299408,1.023733,-2501.309,1027.625)" gradientUnits="userSpaceOnUse" id="radialGradient2502" r="106.08248" xlink:href="#linearGradient2386"/>
    <radialGradient cx="346.85489" cy="430.85977" fx="346.85489" fy="430.85977" gradientTransform="matrix(0.544081,0.116078,-0.300964,1.410681,79.65095,-417.3220)" gradientUnits="userSpaceOnUse" id="radialGradient2542" r="20.914658" spreadMethod="reflect" xlink:href="#linearGradient2536"/>
    <radialGradient cx="561.44958" cy="563.20093" fx="561.44958" fy="563.20093" gradientTransform="matrix(0.391133,5.506478e-2,-0.319482,2.269334,154.8345,-793.8025)" gradientUnits="userSpaceOnUse" id="radialGradient2546" r="20.914658" spreadMethod="reflect" xlink:href="#linearGradient2536"/>
    <radialGradient cx="581.04724" cy="764.47339" fx="581.04724" fy="764.47339" gradientTransform="matrix(0.185888,5.416591e-2,-0.173304,0.594751,89.63475,195.5598)" gradientUnits="userSpaceOnUse" id="radialGradient2554" r="112.68057" xlink:href="#linearGradient2386"/>
    <linearGradient gradientTransform="translate(-210.8769,-68.25099)" gradientUnits="userSpaceOnUse" id="linearGradient2564" spreadMethod="reflect" x1="367.33160" x2="367.33160" xlink:href="#linearGradient2520" y1="235.53743" y2="231.80339"/>
    <linearGradient gradientTransform="translate(-210.8769,-28.25099)" gradientUnits="userSpaceOnUse" id="linearGradient2568" spreadMethod="reflect" x1="367.33160" x2="367.33160" xlink:href="#linearGradient2520" y1="235.53743" y2="231.80339"/>
    <linearGradient gradientTransform="matrix(1.042426,0.000000,0.000000,1.000000,-227.1475,7.749010)" gradientUnits="userSpaceOnUse" id="linearGradient2572" spreadMethod="reflect" x1="367.33160" x2="367.33160" xlink:href="#linearGradient2520" y1="235.53743" y2="231.80339"/>
    <linearGradient gradientTransform="matrix(1.070711,0.000000,0.000000,1.000000,-237.9945,41.74901)" gradientUnits="userSpaceOnUse" id="linearGradient2576" spreadMethod="reflect" x1="367.33160" x2="367.33160" xlink:href="#linearGradient2520" y1="235.53743" y2="231.80339"/>
    <linearGradient gradientTransform="matrix(1.113137,0.000000,0.000000,1.000000,-253.8579,69.74900)" gradientUnits="userSpaceOnUse" id="linearGradient2580" spreadMethod="reflect" x1="367.33160" x2="367.33160" xlink:href="#linearGradient2520" y1="235.53743" y2="231.80339"/>
    <linearGradient gradientTransform="matrix(1.127279,0.000000,0.000000,1.000000,-259.2814,97.74900)" gradientUnits="userSpaceOnUse" id="linearGradient2584" spreadMethod="reflect" x1="367.33160" x2="367.33160" xlink:href="#linearGradient2520" y1="235.53743" y2="231.80339"/>
    <linearGradient gradientTransform="matrix(1.155563,0.000000,0.000000,1.000000,-270.1284,123.7490)" gradientUnits="userSpaceOnUse" id="linearGradient2588" spreadMethod="reflect" x1="367.33160" x2="367.33160" xlink:href="#linearGradient2520" y1="235.53743" y2="231.80339"/>
    <linearGradient gradientTransform="matrix(1.183847,0.000000,0.000000,1.000000,-280.5683,145.7490)" gradientUnits="userSpaceOnUse" id="linearGradient2592" spreadMethod="reflect" x1="367.33160" x2="367.33160" xlink:href="#linearGradient2520" y1="235.53743" y2="231.80339"/>
    <linearGradient gradientTransform="matrix(1.197990,0.000000,0.000000,1.000000,-285.9918,167.7490)" gradientUnits="userSpaceOnUse" id="linearGradient2596" spreadMethod="reflect" x1="367.33160" x2="367.33160" xlink:href="#linearGradient2520" y1="235.53743" y2="231.80339"/>
    <linearGradient gradientTransform="matrix(1.240416,0.000000,0.000000,1.000000,-302.2624,191.7490)" gradientUnits="userSpaceOnUse" id="linearGradient2600" spreadMethod="reflect" x1="367.33160" x2="367.33160" xlink:href="#linearGradient2520" y1="235.53743" y2="231.80339"/>
    <linearGradient gradientTransform="matrix(1.268700,0.000000,0.000000,1.000000,-312.7022,213.7490)" gradientUnits="userSpaceOnUse" id="linearGradient2604" spreadMethod="reflect" x1="367.33160" x2="367.33160" xlink:href="#linearGradient2520" y1="235.53743" y2="231.80339"/>
    <linearGradient gradientTransform="matrix(1.268700,0.000000,0.000000,1.000000,-312.7022,233.7490)" gradientUnits="userSpaceOnUse" id="linearGradient2608" spreadMethod="reflect" x1="367.33160" x2="367.33160" xlink:href="#linearGradient2520" y1="235.53743" y2="231.80339"/>
    <linearGradient gradientTransform="matrix(1.296984,0.000000,0.000000,1.000000,-323.5493,253.7490)" gradientUnits="userSpaceOnUse" id="linearGradient2612" spreadMethod="reflect" x1="367.33160" x2="367.33160" xlink:href="#linearGradient2520" y1="235.53743" y2="231.80339"/>
    <linearGradient gradientTransform="matrix(1.330000,0.000000,0.000000,1.000000,-335.9926,271.7490)" gradientUnits="userSpaceOnUse" id="linearGradient2616" spreadMethod="reflect" x1="367.33160" x2="367.33160" xlink:href="#linearGradient2520" y1="235.53743" y2="231.80339"/>
    <linearGradient gradientTransform="matrix(1.330000,0.000000,0.000000,1.000000,-336.2805,289.7490)" gradientUnits="userSpaceOnUse" id="linearGradient2620" spreadMethod="reflect" x1="367.33160" x2="367.33160" xlink:href="#linearGradient2520" y1="235.53743" y2="231.80339"/>
    <linearGradient gradientTransform="matrix(1.360000,0.000000,0.000000,1.000000,-347.2097,307.7490)" gradientUnits="userSpaceOnUse" id="linearGradient2624" spreadMethod="reflect" x1="367.33160" x2="367.33160" xlink:href="#linearGradient2520" y1="235.53743" y2="231.80339"/>
    <linearGradient gradientTransform="matrix(1.360000,0.000000,0.000000,1.000000,-347.4976,323.7490)" gradientUnits="userSpaceOnUse" id="linearGradient2628" spreadMethod="reflect" x1="367.33160" x2="367.33160" xlink:href="#linearGradient2520" y1="235.53743" y2="231.80339"/>
    <linearGradient gradientTransform="matrix(1.380000,0.000000,0.000000,1.000000,-355.1676,337.7490)" gradientUnits="userSpaceOnUse" id="linearGradient2632" spreadMethod="reflect" x1="367.33160" x2="367.33160" xlink:href="#linearGradient2520" y1="235.53743" y2="231.80339"/>
    <linearGradient gradientTransform="matrix(1.400000,0.000000,0.000000,1.000000,-362.2617,349.7490)" gradientUnits="userSpaceOnUse" id="linearGradient2636" spreadMethod="reflect" x1="367.33160" x2="367.33160" xlink:href="#linearGradient2520" y1="235.53743" y2="231.80339"/>
    <linearGradient gradientTransform="matrix(1.420000,0.000000,0.000000,1.000000,-369.9317,361.7490)" gradientUnits="userSpaceOnUse" id="linearGradient2640" spreadMethod="reflect" x1="367.33160" x2="367.33160" xlink:href="#linearGradient2520" y1="235.53743" y2="231.80339"/>
    <linearGradient gradientTransform="matrix(1.440000,0.000000,0.000000,1.000000,-377.3138,371.7490)" gradientUnits="userSpaceOnUse" id="linearGradient2644" spreadMethod="reflect" x1="367.33160" x2="367.33160" xlink:href="#linearGradient2520" y1="235.53743" y2="231.80339"/>
    <linearGradient gradientTransform="matrix(0.820780,0.000000,0.000000,0.674885,-146.1677,232.4922)" gradientUnits="userSpaceOnUse" id="linearGradient2677" spreadMethod="reflect" x1="401.48959" x2="350.54016" xlink:href="#linearGradient2520" y1="849.09534" y2="866.37012"/>
    <radialGradient cx="369.96561" cy="87.463882" fx="369.96561" fy="87.463882" gradientTransform="matrix(0.208148,-9.613076e-2,0.291988,0.632229,56.33905,73.73170)" gradientUnits="userSpaceOnUse" id="radialGradient2714" r="35.496265" spreadMethod="reflect" xlink:href="#linearGradient2708"/>
    <radialGradient cx="369.96561" cy="87.463882" fx="369.96561" fy="87.463882" gradientTransform="matrix(0.363173,0.305053,-0.606800,0.722410,77.59665,-82.58019)" gradientUnits="userSpaceOnUse" id="radialGradient2718" r="35.496265" spreadMethod="reflect" xlink:href="#linearGradient2708"/>
    <linearGradient gradientTransform="matrix(0.590712,3.992284e-17,5.114761e-17,0.587288,-294.0426,296.5473)" gradientUnits="userSpaceOnUse" id="linearGradient2728" x1="86.374016" x2="103.64882" xlink:href="#linearGradient2386" y1="729.89917" y2="729.89917"/>
    <linearGradient gradientUnits="userSpaceOnUse" id="linearGradient2753" x1="-243.61934" x2="-234.15958" xlink:href="#linearGradient2733" y1="729.98450" y2="729.77930"/>
    <radialGradient cx="320.45007" cy="97.731056" fx="320.45007" fy="97.731056" gradientTransform="matrix(4.378722,0.785533,-0.135931,0.757711,-1284.072,-215.2792)" gradientUnits="userSpaceOnUse" id="radialGradient2326" r="31.983978" xlink:href="#linearGradient2320"/>
    <radialGradient cx="359.75278" cy="117.65639" fx="359.75278" fy="117.65639" gradientTransform="matrix(1.000000,1.000005,-2.210885,2.210874,260.1247,-502.2216)" gradientUnits="userSpaceOnUse" id="radialGradient2344" r="7.9226346" xlink:href="#linearGradient2320"/>
    <radialGradient cx="359.75278" cy="117.65639" fx="359.75278" fy="117.65639" gradientTransform="matrix(1.000013,-1.094217e-5,1.094486e-5,1.000005,-6.215011e-3,3.434891e-3)" gradientUnits="userSpaceOnUse" id="radialGradient2360" r="7.9226346" xlink:href="#linearGradient2414"/>
    <linearGradient gradientTransform="matrix(1.884472,0.000000,0.000000,1.000000,-544.5221,581.7490)" gradientUnits="userSpaceOnUse" id="linearGradient2702" spreadMethod="reflect" x1="367.33160" x2="367.33160" xlink:href="#linearGradient2320" y1="232.38486" y2="230.65738"/>
    <radialGradient cx="346.55560" cy="829.78864" fx="346.55560" fy="829.78864" gradientTransform="matrix(1.000000,0.000000,0.000000,1.285714,0.000000,-237.0824)" gradientUnits="userSpaceOnUse" id="radialGradient2713" r="1.8907945" xlink:href="#linearGradient2320"/>
    <radialGradient cx="346.55560" cy="829.78864" fx="346.55560" fy="829.78864" gradientTransform="matrix(1.000000,0.000000,0.000000,1.285714,0.000000,-237.0824)" gradientUnits="userSpaceOnUse" id="radialGradient2717" r="1.8907945" xlink:href="#linearGradient2320"/>
    <radialGradient cx="346.55560" cy="829.78864" fx="346.55560" fy="829.78864" gradientTransform="matrix(1.000000,0.000000,0.000000,1.285714,0.000000,-237.0824)" gradientUnits="userSpaceOnUse" id="radialGradient2721" r="1.8907945" xlink:href="#linearGradient2320"/>
    <radialGradient cx="346.55560" cy="829.78864" fx="346.55560" fy="829.78864" gradientTransform="matrix(1.000000,0.000000,0.000000,1.285714,0.000000,-237.0824)" gradientUnits="userSpaceOnUse" id="radialGradient2725" r="1.8907945" xlink:href="#linearGradient2320"/>
    <radialGradient cx="228.43492" cy="1427.7312" fx="228.43492" fy="1427.7312" gradientTransform="matrix(3.095027,-4.896763e-13,2.248552e-17,0.641214,-445.7310,-47.59386)" gradientUnits="userSpaceOnUse" id="radialGradient2735" r="262.05075" xlink:href="#linearGradient2320"/>
    <radialGradient cx="207.17705" cy="739.50684" fx="207.17705" fy="739.50684" gradientUnits="userSpaceOnUse" id="radialGradient3039" r="6.2126102" xlink:href="#linearGradient2414"/>
    <radialGradient cx="207.17705" cy="739.50684" fx="207.17705" fy="739.50684" gradientUnits="userSpaceOnUse" id="radialGradient3043" r="6.2126102" xlink:href="#linearGradient2414"/>
    <radialGradient cx="207.38712" cy="739.33490" fx="207.38712" fy="739.33490" gradientTransform="matrix(1.984753,8.928775e-22,5.510775e-22,1.984753,-201.7613,-725.5987)" gradientUnits="userSpaceOnUse" id="radialGradient3051" r="6.2126102" xlink:href="#linearGradient2320"/>
    <radialGradient cx="207.38712" cy="739.33490" fx="207.38712" fy="739.33490" gradientTransform="matrix(1.984753,8.928775e-22,5.510775e-22,1.984753,-201.7613,-725.5987)" gradientUnits="userSpaceOnUse" id="radialGradient3055" r="6.2126102" xlink:href="#linearGradient2320"/>
    <linearGradient gradientUnits="userSpaceOnUse" id="linearGradient3061" x1="207.17705" x2="209.46960" xlink:href="#linearGradient2386" y1="729.25391" y2="745.71942"/>
    <linearGradient gradientUnits="userSpaceOnUse" id="linearGradient3065" x1="207.17705" x2="209.46960" xlink:href="#linearGradient2386" y1="729.25391" y2="745.71942"/>
  </defs>
  <g id="layer1">
    <path d="M 488.60522 895.19415 A 121.74413 17.101183 0 1 1  245.11695,895.19415 A 121.74413 17.101183 0 1 1  488.60522 895.19415 z" id="path2412" style="opacity:0.49999997;fill:url(#radialGradient2420);fill-opacity:1.0000000;stroke:none;stroke-width:1.2500000;stroke-linecap:round;stroke-linejoin:round;stroke-miterlimit:4.0000000;stroke-opacity:1.0000000" transform="matrix(0.876334,-2.466861e-3,-5.106013e-3,0.759034,-168.3038,182.8875)"/>
    <use height="1052.3622" id="use2586" transform="matrix(1.000000,0.000000,0.000000,1.063959,26.00000,-95.93096)" width="744.09448" x="0.0000000" xlink:href="#path1376" y="0.0000000"/>
    <use height="1052.3622" id="use2584" transform="translate(18.00000,-58.00000)" width="744.09448" x="0.0000000" xlink:href="#path1376" y="0.0000000"/>
    <use height="1052.3622" id="use2582" transform="translate(8.000000,-28.00000)" width="744.09448" x="0.0000000" xlink:href="#path1376" y="0.0000000"/>
    <path d="M 85.745936,102.55318 C 88.016696,98.390230 90.160836,99.770590 92.436276,98.938010 C 94.711726,98.105420 95.348476,96.974330 97.723216,96.992180 C 100.57379,97.013600 108.99956,99.841470 112.48363,102.08682 C 115.96771,104.33217 113.13527,107.19798 118.62767,110.46427 C 124.12006,113.73057 141.09517,119.49791 145.43800,121.68463 C 149.78084,123.87136 149.68699,124.52289 144.68466,123.58461 C 139.68233,122.64631 121.92898,116.85839 115.42402,116.05489 C 108.91906,115.25140 109.88588,119.17699 105.65489,118.76369 C 101.42389,118.35039 92.867416,115.44787 90.038016,113.57508 C 87.208626,111.70230 87.998036,110.46631 87.003456,108.53508 C 86.008886,106.60384 83.679676,106.33213 85.745936,102.55318 z " id="path1376" style="fill:url(#radialGradient2326);fill-opacity:1.0000000;fill-rule:evenodd;stroke:none;stroke-width:0.31250000;stroke-linecap:butt;stroke-linejoin:miter;stroke-miterlimit:4.0000000;stroke-opacity:1.0000000"/>
    <path d="M 88.200796,99.937500 C 87.385656,100.35425 86.568656,101.02875 85.732046,102.56250 C 83.665786,106.34145 86.018716,106.60001 87.013296,108.53125 C 88.007876,110.46248 87.215156,111.68973 90.044546,113.56250 C 92.873946,115.43529 101.43854,118.33670 105.66955,118.75000 C 109.90054,119.16330 108.91460,115.25901 115.41955,116.06250 C 121.92451,116.86600 139.66722,122.65545 144.66955,123.59375 C 149.67188,124.53203 149.79363,123.87423 145.45080,121.68750 C 144.90750,121.41393 143.09230,120.74874 142.20080,120.37500 C 135.09430,118.49815 122.89052,114.73828 117.41955,114.06250 C 110.91460,113.25901 111.90054,117.16330 107.66955,116.75000 C 103.43854,116.33670 94.873946,113.43529 92.044546,111.56250 C 89.215156,109.68973 90.007876,108.46248 89.013296,106.53125 C 88.018716,104.60001 85.665786,104.34145 87.732046,100.56250 C 87.891146,100.27083 88.042856,100.17742 88.200796,99.937500 z " id="path2672" style="fill:#000000;fill-opacity:0.39215687;fill-rule:evenodd;stroke:none;stroke-width:0.31250000;stroke-linecap:butt;stroke-linejoin:miter;stroke-miterlimit:4.0000000;stroke-opacity:1.0000000"/>
    <path d="M 488.60522 895.19415 A 121.74413 17.101183 0 1 1  245.11695,895.19415 A 121.74413 17.101183 0 1 1  488.60522 895.19415 z" id="path2422" style="opacity:0.29951689;fill:url(#radialGradient2424);fill-opacity:1.0000000;stroke:none;stroke-width:1.2500000;stroke-linecap:round;stroke-linejoin:round;stroke-miterlimit:4.0000000;stroke-opacity:1.0000000" transform="matrix(1.534616,-5.014839e-2,-1.194316e-2,1.793008,-364.7281,-733.7891)"/>
    <path d="M 96.200796,71.937500 C 95.385656,72.354250 94.568656,73.028750 93.732046,74.562500 C 91.665786,78.341450 94.018716,78.600010 95.013296,80.531250 C 96.007876,82.462480 95.215156,83.689730 98.044546,85.562500 C 100.87395,87.435290 109.43854,90.336700 113.66955,90.750000 C 117.90054,91.163300 116.91460,87.259010 123.41955,88.062500 C 129.92451,88.866000 147.66722,94.655450 152.66955,95.593750 C 157.67188,96.532030 157.79363,95.874230 153.45080,93.687500 C 152.90750,93.413930 151.09230,92.748740 150.20080,92.375000 C 143.09430,90.498150 130.89052,86.738280 125.41955,86.062500 C 118.91460,85.259010 119.90054,89.163300 115.66955,88.750000 C 111.43854,88.336700 102.87395,85.435290 100.04455,83.562500 C 97.215156,81.689730 98.007876,80.462480 97.013296,78.531250 C 96.018716,76.600010 93.665786,76.341450 95.732046,72.562500 C 95.891146,72.270830 96.042856,72.177420 96.200796,71.937500 z " id="path2686" style="fill:#000000;fill-opacity:0.39215687;fill-rule:evenodd;stroke:none;stroke-width:0.31250000;stroke-linecap:butt;stroke-linejoin:miter;stroke-miterlimit:4.0000000;stroke-opacity:1.0000000"/>
    <path d="M 106.20080,41.937500 C 105.38566,42.354250 104.56866,43.028750 103.73205,44.562500 C 101.66579,48.341450 104.01872,48.600010 105.01330,50.531250 C 106.00788,52.462480 105.21516,53.689730 108.04455,55.562500 C 110.87395,57.435290 119.43854,60.336700 123.66955,60.750000 C 127.90054,61.163300 126.91460,57.259010 133.41955,58.062500 C 139.92451,58.866000 157.66722,64.655450 162.66955,65.593750 C 167.67188,66.532030 167.79363,65.874230 163.45080,63.687500 C 162.90750,63.413930 161.09230,62.748740 160.20080,62.375000 C 153.09430,60.498150 140.89052,56.738280 135.41955,56.062500 C 128.91460,55.259010 129.90054,59.163300 125.66955,58.750000 C 121.43854,58.336700 112.87395,55.435290 110.04455,53.562500 C 107.21516,51.689730 108.00788,50.462480 107.01330,48.531250 C 106.01872,46.600010 103.66579,46.341450 105.73205,42.562500 C 105.89115,42.270830 106.04286,42.177420 106.20080,41.937500 z " id="path2688" style="fill:#000000;fill-opacity:0.39215687;fill-rule:evenodd;stroke:none;stroke-width:0.31250000;stroke-linecap:butt;stroke-linejoin:miter;stroke-miterlimit:4.0000000;stroke-opacity:1.0000000"/>
    <path d="M 114.20080,11.937500 C 113.38566,12.354250 112.56866,13.028750 111.73205,14.562500 C 109.66579,18.341450 112.01872,18.600010 113.01330,20.531250 C 114.00788,22.462480 113.21516,23.689730 116.04455,25.562500 C 118.87395,27.435290 127.43854,30.336700 131.66955,30.750000 C 135.90054,31.163300 134.91460,27.259010 141.41955,28.062500 C 147.92451,28.866000 165.66722,34.655450 170.66955,35.593750 C 175.67188,36.532030 175.79363,35.874230 171.45080,33.687500 C 170.90750,33.413930 169.09230,32.748740 168.20080,32.375000 C 161.09430,30.498150 148.89052,26.738280 143.41955,26.062500 C 136.91460,25.259010 137.90054,29.163300 133.66955,28.750000 C 129.43854,28.336700 120.87395,25.435290 118.04455,23.562500 C 115.21516,21.689730 116.00788,20.462480 115.01330,18.531250 C 114.01872,16.600010 111.66579,16.341450 113.73205,12.562500 C 113.89115,12.270830 114.04286,12.177420 114.20080,11.937500 z " id="path2690" style="fill:#000000;fill-opacity:0.39215687;fill-rule:evenodd;stroke:none;stroke-width:0.31250000;stroke-linecap:butt;stroke-linejoin:miter;stroke-miterlimit:4.0000000;stroke-opacity:1.0000000"/>
    <path d="M 143.73533,168.02257 C 143.64785,165.09632 144.97379,159.41174 139.69056,156.65982 C 117.87064,145.29436 119.88448,156.32447 134.38072,106.43330 C 153.02715,42.258577 155.34164,21.424868 169.80663,18.244233 C 185.38484,14.818817 196.97597,44.060457 193.87810,50.786670 C 190.65402,57.786900 183.13223,74.249790 186.91064,110.20375 C 190.68905,146.15772 192.70267,147.56384 176.36354,157.16039 C 171.21416,160.18481 172.06995,165.69236 171.11267,168.96145 L 143.73533,168.02257 z " id="path2842" style="fill:url(#radialGradient2714);fill-opacity:1.0000000;fill-rule:evenodd;stroke:none;stroke-width:0.25000000pt;stroke-linecap:butt;stroke-linejoin:miter;stroke-opacity:1.0000000"/>
    <path d="M 128.64645,845.41044 C 39.757626,844.10263 33.852276,795.04478 34.268226,756.97935 C 34.644826,721.21687 69.152986,684.29073 70.309066,644.71662 C 71.465156,605.14250 57.137616,569.50330 54.875006,528.40688 C 52.606956,487.21169 71.972766,468.03133 87.698036,469.64888 C 103.36408,471.26035 82.669176,514.43992 108.51023,540.84152 C 134.91091,567.81488 149.65598,520.36181 154.77985,520.89928 C 160.79214,521.52995 155.91009,585.18288 182.47015,585.58646 C 207.85163,585.97213 216.28451,566.26200 216.20492,549.30457 C 216.12540,532.36120 249.90134,534.93062 244.36365,578.14929 C 238.82596,621.36796 227.48763,627.39330 228.78600,655.63109 C 229.95243,680.99915 268.28092,727.43089 257.80786,777.21219 C 247.80001,824.78214 229.76536,846.89819 128.64645,845.41044 z " id="path1061" style="fill:#9edef3;fill-opacity:1.0000000;fill-rule:evenodd;stroke:none;stroke-width:0.25000000pt;stroke-linecap:butt;stroke-linejoin:miter;stroke-opacity:1.0000000"/>
    <path d="M 128.64645,845.41044 C 39.757626,844.10263 33.852276,795.04478 34.268226,756.97935 C 34.644826,721.21687 69.152986,684.29073 70.309066,644.71662 C 71.465156,605.14250 57.137616,569.50330 54.875006,528.40688 C 52.606956,487.21169 71.972766,468.03133 87.698036,469.64888 C 103.36408,471.26035 82.669176,514.43992 108.51023,540.84152 C 134.91091,567.81488 149.65598,520.36181 154.77985,520.89928 C 160.79214,521.52995 155.91009,585.18288 182.47015,585.58646 C 207.85163,585.97213 216.28451,566.26200 216.20492,549.30457 C 216.12540,532.36120 249.90134,534.93062 244.36365,578.14929 C 238.82596,621.36796 227.48763,627.39330 228.78600,655.63109 C 229.95243,680.99915 268.28092,727.43089 257.80786,777.21219 C 247.80001,824.78214 229.76536,846.89819 128.64645,845.41044 z " id="path2426" style="opacity:0.69999999;fill:url(#linearGradient2434);fill-opacity:1.0000000;fill-rule:evenodd;stroke:none;stroke-width:0.25000000pt;stroke-linecap:butt;stroke-linejoin:miter;stroke-opacity:1.0000000"/>
    <path d="M 82.557876,473.96207 C 64.204906,480.75770 58.959616,502.66226 58.925386,520.25246 C 58.860616,565.91124 78.798376,609.95556 73.093306,655.83799 C 67.417546,690.44788 48.830036,706.71488 47.362916,734.53454 C 45.938656,761.54149 102.64699,815.80375 126.81881,841.27196 C 155.64879,843.21328 202.62976,840.12099 227.98911,824.52048 C 246.87503,810.99620 252.97601,786.70635 255.23111,764.83712 C 257.57484,731.10178 239.24127,701.20093 228.17119,670.56139 C 219.73285,649.26767 228.68508,626.97560 234.50237,606.30592 C 238.75487,591.36575 242.19144,575.49012 240.07181,559.94958 C 238.72749,552.59098 232.60031,541.57517 223.79298,544.23226 C 217.22755,547.95470 221.47081,556.92249 218.45573,562.87468 C 214.51723,579.20967 198.24847,591.41705 181.35697,589.35293 C 168.48324,588.63568 162.50332,575.57123 159.44670,564.79151 C 156.12745,553.01412 155.68363,540.69552 153.22615,528.73982 C 146.15148,539.12327 138.16187,553.04838 123.84823,552.87042 C 106.57288,551.20889 96.261746,533.83165 92.375386,518.53227 C 88.990106,504.06524 92.023796,488.60552 88.520416,474.37649 C 86.705526,473.34483 84.534216,474.13034 82.557876,473.96207 z " id="path1318" style="fill:#69cbeb;fill-opacity:1.0000000;fill-rule:evenodd;stroke:none;stroke-width:0.25000000pt;stroke-linecap:butt;stroke-linejoin:miter;stroke-opacity:1.0000000"/>
    <path d="M 82.557876,473.96207 C 64.204906,480.75770 58.959616,502.66226 58.925386,520.25246 C 58.860616,565.91124 78.798376,609.95556 73.093306,655.83799 C 67.417546,690.44788 48.015696,705.08620 46.548576,732.90586 C 45.124316,759.91281 94.503566,807.66032 126.81881,841.27196 C 155.64879,843.21328 202.62976,840.12099 227.98911,824.52048 C 246.87503,810.99620 252.97601,786.70635 255.23111,764.83712 C 257.57484,731.10178 239.24127,701.20093 228.17119,670.56139 C 219.73285,649.26767 228.68508,626.97560 234.50237,606.30592 C 238.75487,591.36575 242.19144,575.49012 240.07181,559.94958 C 238.72749,552.59098 232.60031,541.57517 223.79298,544.23226 C 217.22755,547.95470 221.47081,556.92249 218.45573,562.87468 C 214.51723,579.20967 198.24847,591.41705 181.35697,589.35293 C 168.48324,588.63568 162.50332,575.57123 159.44670,564.79151 C 156.12745,553.01412 155.68363,540.69552 153.22615,528.73982 C 146.15148,539.12327 138.16187,553.04838 123.84823,552.87042 C 106.57288,551.20889 96.261746,533.83165 92.375386,518.53227 C 88.990106,504.06524 92.023796,488.60552 88.520416,474.37649 C 86.705526,473.34483 84.534216,474.13034 82.557876,473.96207 z " id="path2492" style="fill:url(#linearGradient2500);fill-opacity:1.0000000;fill-rule:evenodd;stroke:none;stroke-width:0.25000000pt;stroke-linecap:butt;stroke-linejoin:miter;stroke-opacity:1.0000000"/>
    <path d="M 82.557876,473.96207 C 64.204906,480.75770 58.959616,502.66226 58.925386,520.25246 C 58.860616,565.91124 78.798376,609.95556 73.093306,655.83799 C 67.417546,690.44788 44.758326,721.37304 43.291206,749.19270 C 41.866946,776.19965 115.38962,816.61809 142.81881,841.27196 C 171.64879,843.21328 202.62976,840.12099 227.98911,824.52048 C 246.87503,810.99620 252.97601,786.70635 255.23111,764.83712 C 257.57484,731.10178 239.24127,701.20093 228.17119,670.56139 C 219.73285,649.26767 228.68508,626.97560 234.50237,606.30592 C 238.75487,591.36575 242.19144,575.49012 240.07181,559.94958 C 238.72749,552.59098 232.60031,541.57517 223.79298,544.23226 C 217.22755,547.95470 221.47081,556.92249 218.45573,562.87468 C 214.51723,579.20967 198.24847,591.41705 181.35697,589.35293 C 168.48324,588.63568 162.50332,575.57123 159.44670,564.79151 C 156.12745,553.01412 155.68363,540.69552 153.22615,528.73982 C 146.15148,539.12327 138.16187,553.04838 123.84823,552.87042 C 106.57288,551.20889 96.261746,533.83165 92.375386,518.53227 C 88.990106,504.06524 92.023796,488.60552 88.520416,474.37649 C 86.705526,473.34483 84.534216,474.13034 82.557876,473.96207 z " id="path2442" style="opacity:0.29999998;fill:url(#radialGradient2502);fill-opacity:1.0000000;fill-rule:evenodd;stroke:none;stroke-width:0.25000000pt;stroke-linecap:butt;stroke-linejoin:miter;stroke-opacity:1.0000000"/>
    <path d="M 229.73242,553.74762 C 221.68495,558.79663 223.78821,570.40605 219.31549,577.93178 C 212.19668,595.85938 190.47078,600.15154 173.24532,600.07063 C 156.99563,599.91772 143.63711,588.46135 136.40576,574.63594 C 131.45562,567.89031 127.87525,555.63885 117.50926,556.70589 C 107.54229,558.10828 108.08259,570.28821 109.23231,577.80667 C 113.51104,603.35448 114.54582,630.05398 106.24291,654.98972 C 99.152646,677.51721 91.415676,703.02969 101.61764,725.83408 C 105.83268,734.60869 115.80416,737.73542 124.90576,736.59964 C 151.32576,737.38176 177.91816,736.06643 204.21178,738.75510 C 218.69006,741.56566 221.43799,758.89469 220.51812,771.24444 C 220.38841,787.62097 214.04341,803.14077 204.95851,816.51899 C 201.67749,821.95180 207.95058,827.83999 213.36963,824.95248 C 228.14404,820.66973 238.90992,807.51355 245.65196,794.19307 C 257.91452,769.51071 253.69685,740.37447 243.41438,715.80532 C 235.34019,692.78073 220.21900,670.52491 223.51610,645.07330 C 225.20052,618.05965 243.12122,593.64598 238.45598,565.96756 C 237.77756,561.41874 236.15317,552.07165 229.73242,553.74762 z " id="path2082" style="fill:#000000;fill-opacity:0.19607843;fill-rule:evenodd;stroke:none;stroke-width:1.2500000;stroke-linecap:butt;stroke-linejoin:miter;stroke-miterlimit:4.0000000;stroke-opacity:1.0000000"/>
    <path d="M 117.43405,557.65043 C 102.59372,560.05996 114.84691,583.76353 114.03448,615.85973 C 113.22901,647.54881 103.27759,661.70704 99.417456,685.31857 C 95.717436,707.95075 99.355696,732.72902 117.34616,733.54743 C 135.35277,734.36656 187.42973,733.46840 202.03522,735.34466 C 216.23926,737.16936 224.33406,749.82906 221.56919,776.58420 C 218.34535,807.78041 201.76066,815.19832 206.26718,821.30082 C 211.25352,828.05309 246.19784,809.11087 250.30725,766.98829 C 254.41107,724.92284 223.54065,688.43196 220.83004,658.79800 C 218.11942,629.16403 232.32260,606.10447 234.84387,590.01264 C 239.28453,569.98169 234.52192,547.55409 227.55100,556.52744 C 220.97957,564.98654 228.44186,596.39657 180.87682,600.89187 C 133.31179,605.38716 133.53112,555.03685 117.43405,557.65043 z " id="path2840" style="fill:#ffffff;fill-opacity:1.0000000;fill-rule:evenodd;stroke:none;stroke-width:1.2500000;stroke-linecap:butt;stroke-linejoin:miter;stroke-miterlimit:4.0000000;stroke-opacity:1.0000000"/>
    <path d="M 143.73533,168.02257 C 143.64785,165.09632 144.97379,159.41174 139.69056,156.65982 C 117.87064,145.29436 119.88448,156.32447 134.38072,106.43330 C 153.02715,42.258577 155.34164,21.424868 169.80663,18.244233 C 185.38484,14.818817 196.97597,44.060457 193.87810,50.786670 C 190.65402,57.786900 183.13223,74.249790 186.91064,110.20375 C 190.68905,146.15772 192.70267,147.56384 176.36354,157.16039 C 171.21416,160.18481 172.06995,165.69236 171.11267,168.96145 L 143.73533,168.02257 z " id="path2716" style="opacity:0.69999999;fill:url(#radialGradient2718);fill-opacity:1.0000000;fill-rule:evenodd;stroke:none;stroke-width:0.25000000pt;stroke-linecap:butt;stroke-linejoin:miter;stroke-opacity:1.0000000"/>
    <path d="M 133.40881,605.96252 L 144.13250,163.02196 L 172.43526,163.94127 L 174.92388,606.98409 C 175.20922,614.21503 133.28017,613.39455 133.40881,605.96252 z " id="path2271" style="fill:url(#radialGradient2542);fill-opacity:1.0000000;fill-rule:evenodd;stroke:none;stroke-width:0.25000000pt;stroke-linecap:butt;stroke-linejoin:miter;stroke-opacity:1.0000000"/>
    <g id="g2659" transform="matrix(0.842746,0.000000,0.000000,1.000000,-174.7612,-69.22151)">
      <rect height="14.971496" id="rect2661" rx="2.7329354" ry="10.941171" style="fill:#000000;fill-opacity:0.11764706;stroke:none;stroke-width:5.0000000;stroke-linecap:round;stroke-linejoin:round;stroke-miterlimit:4.0000000;stroke-opacity:1.0000000" transform="matrix(0.999854,1.708348e-2,-1.708348e-2,0.999854,0.000000,0.000000)" width="35.125431" x="372.41241" y="760.78156"/>
      <rect height="14.971496" id="rect2663" rx="2.7329354" ry="10.941171" style="fill:#000000;fill-opacity:0.31372550;stroke:none;stroke-width:5.0000000;stroke-linecap:round;stroke-linejoin:round;stroke-miterlimit:4.0000000;stroke-opacity:1.0000000" transform="matrix(0.999854,1.708348e-2,-1.708348e-2,0.999854,0.000000,0.000000)" width="35.125431" x="372.41241" y="758.78156"/>
      <rect height="14.971496" id="rect2665" rx="2.7329354" ry="10.941171" style="fill:#424242;fill-opacity:1.0000000;stroke:none;stroke-width:5.0000000;stroke-linecap:round;stroke-linejoin:round;stroke-miterlimit:4.0000000;stroke-opacity:1.0000000" transform="matrix(0.999854,1.708348e-2,-1.708348e-2,0.999854,0.000000,0.000000)" width="35.125431" x="371.26077" y="757.05408"/>
    </g>
    <g id="g2654" transform="matrix(0.842746,0.000000,0.000000,1.000000,-154.7612,-54.00000)">
      <rect height="14.971496" id="rect2382" rx="2.7329354" ry="10.941171" style="fill:#000000;fill-opacity:0.11764706;stroke:none;stroke-width:5.0000000;stroke-linecap:round;stroke-linejoin:round;stroke-miterlimit:4.0000000;stroke-opacity:1.0000000" transform="matrix(0.999854,1.708348e-2,-1.708348e-2,0.999854,0.000000,0.000000)" width="35.125431" x="372.41241" y="760.78156"/>
      <rect height="14.971496" id="rect2380" rx="2.7329354" ry="10.941171" style="fill:#000000;fill-opacity:0.31372550;stroke:none;stroke-width:5.0000000;stroke-linecap:round;stroke-linejoin:round;stroke-miterlimit:4.0000000;stroke-opacity:1.0000000" transform="matrix(0.999854,1.708348e-2,-1.708348e-2,0.999854,0.000000,0.000000)" width="35.125431" x="372.41241" y="758.78156"/>
      <rect height="14.971496" id="rect2854" rx="2.7329354" ry="10.941171" style="fill:#424242;fill-opacity:1.0000000;stroke:none;stroke-width:5.0000000;stroke-linecap:round;stroke-linejoin:round;stroke-miterlimit:4.0000000;stroke-opacity:1.0000000" transform="matrix(0.999854,1.708348e-2,-1.708348e-2,0.999854,0.000000,0.000000)" width="35.125431" x="371.26077" y="757.05408"/>
    </g>
    <path d="M 351.62605 696.83105 A 2.9210331 2.9210331 0 1 1  345.78398,696.83105 A 2.9210331 2.9210331 0 1 1  351.62605 696.83105 z" id="path2698" style="fill:#ffffff;fill-opacity:1.0000000;stroke:none;stroke-width:0.31250000;stroke-linecap:round;stroke-linejoin:round;stroke-miterlimit:4.0000000;stroke-opacity:0.39215687" transform="matrix(0.750000,0.000000,0.000000,0.750000,-95.12575,194.4472)"/>
    <path d="M 87.700796,469.65625 C 71.975526,468.03870 52.620266,487.21108 54.888296,528.40625 C 57.150906,569.50267 71.450626,605.14464 70.294546,644.71875 C 69.138466,684.29286 34.639886,721.20625 34.263296,756.96875 C 33.847346,795.03418 39.749446,844.09842 128.63830,845.40625 C 229.75721,846.89400 247.78670,824.78867 257.79455,777.21875 C 268.26761,727.43745 229.96097,680.99305 228.79455,655.62500 C 227.49618,627.38721 238.81937,621.37492 244.35705,578.15625 C 249.89474,534.93758 216.12125,532.36913 216.20080,549.31250 C 216.28039,566.26993 207.86353,585.97939 182.48205,585.59375 C 155.92199,585.19017 160.80685,521.53691 154.79455,520.90625 C 149.67068,520.36878 134.91396,567.81714 108.51330,540.84375 C 82.672246,514.44215 103.36683,471.26774 87.700796,469.65625 z M 85.607046,473.84375 C 86.623776,473.79737 87.605836,473.85918 88.513296,474.37500 C 92.016676,488.60403 89.003046,504.06420 92.388296,518.53125 C 96.274656,533.83063 106.58173,551.21347 123.85705,552.87500 C 138.17069,553.05296 146.15740,539.13346 153.23205,528.75000 C 155.68953,540.70570 156.13154,553.00387 159.45080,564.78125 C 162.50742,575.56097 168.48330,588.62652 181.35705,589.34375 C 198.24855,591.40787 214.51229,579.20998 218.45080,562.87500 C 221.46588,556.92281 217.22914,547.94121 223.79455,544.21875 C 232.60188,541.56166 238.73146,552.57890 240.07580,559.93750 C 242.19543,575.47804 238.76580,591.37234 234.51330,606.31250 C 228.69601,626.98218 219.73120,649.26877 228.16955,670.56250 C 239.23963,701.20204 257.57576,731.10843 255.23205,764.84375 C 252.97695,786.71298 246.86795,811.00694 227.98205,824.53125 C 202.62270,840.13176 171.65581,843.22256 142.82580,841.28125 C 115.39661,816.62738 41.870306,776.19446 43.294546,749.18750 C 44.761666,721.36784 67.431276,690.45362 73.107046,655.84375 C 78.812116,609.96132 58.854756,565.90880 58.919546,520.25000 C 58.953776,502.65980 64.191596,480.76435 82.544546,473.96875 C 83.532716,474.05288 84.590316,473.89013 85.607046,473.84375 z " id="path2453" style="fill:url(#radialGradient2554);fill-opacity:1.0000000;fill-rule:evenodd;stroke:none;stroke-width:0.25000000pt;stroke-linecap:butt;stroke-linejoin:miter;stroke-opacity:1.0000000"/>
    <path d="M 351.62605 696.83105 A 2.9210331 2.9210331 0 1 1  345.78398,696.83105 A 2.9210331 2.9210331 0 1 1  351.62605 696.83105 z" id="path2696" style="fill:#ffffff;fill-opacity:1.0000000;stroke:none;stroke-width:0.31250000;stroke-linecap:round;stroke-linejoin:round;stroke-miterlimit:4.0000000;stroke-opacity:0.39215687" transform="matrix(0.750000,0.000000,0.000000,0.750000,-105.1258,194.4472)"/>
    <path d="M 87.700796,469.65625 C 71.975526,468.03870 52.620266,487.21108 54.888296,528.40625 C 57.150906,569.50267 71.450626,605.14464 70.294546,644.71875 C 69.138466,684.29286 34.639886,721.20625 34.263296,756.96875 C 33.847346,795.03418 39.749446,844.09842 128.63830,845.40625 C 229.75721,846.89400 247.78670,824.78867 257.79455,777.21875 C 268.26761,727.43745 229.96097,680.99305 228.79455,655.62500 C 227.49618,627.38721 238.81937,621.37492 244.35705,578.15625 C 249.89474,534.93758 216.12125,532.36913 216.20080,549.31250 C 216.28039,566.26993 207.86353,585.97939 182.48205,585.59375 C 155.92199,585.19017 160.80685,521.53691 154.79455,520.90625 C 149.67068,520.36878 134.91396,567.81714 108.51330,540.84375 C 82.672246,514.44215 103.36683,471.26774 87.700796,469.65625 z M 85.607046,473.84375 C 86.623776,473.79737 87.605836,473.85918 88.513296,474.37500 C 92.016676,488.60403 89.003046,504.06420 92.388296,518.53125 C 96.274656,533.83063 106.58173,551.21347 123.85705,552.87500 C 138.17069,553.05296 146.15740,539.13346 153.23205,528.75000 C 155.68953,540.70570 156.13154,553.00387 159.45080,564.78125 C 162.50742,575.56097 168.48330,588.62652 181.35705,589.34375 C 198.24855,591.40787 214.51229,579.20998 218.45080,562.87500 C 221.46588,556.92281 217.22914,547.94121 223.79455,544.21875 C 232.60188,541.56166 238.73146,552.57890 240.07580,559.93750 C 242.19543,575.47804 238.76580,591.37234 234.51330,606.31250 C 228.69601,626.98218 219.73120,649.26877 228.16955,670.56250 C 239.23963,701.20204 257.57576,731.10843 255.23205,764.84375 C 252.97695,786.71298 246.86795,811.00694 227.98205,824.53125 C 202.62270,840.13176 171.65581,843.22256 142.82580,841.28125 C 115.39661,816.62738 41.870306,776.19446 43.294546,749.18750 C 44.761666,721.36784 67.431276,690.45362 73.107046,655.84375 C 78.812116,609.96132 58.854756,565.90880 58.919546,520.25000 C 58.953776,502.65980 64.191596,480.76435 82.544546,473.96875 C 83.532716,474.05288 84.590316,473.89013 85.607046,473.84375 z " id="path2460" style="opacity:0.80000001;fill:url(#radialGradient2468);fill-opacity:1.0000000;fill-rule:evenodd;stroke:none;stroke-width:0.25000000pt;stroke-linecap:butt;stroke-linejoin:miter;stroke-opacity:1.0000000"/>
    <path d="M 87.700796,469.65625 C 71.975526,468.03870 52.620266,487.21108 54.888296,528.40625 C 57.150906,569.50267 71.450626,605.14464 70.294546,644.71875 C 69.138466,684.29286 34.639886,721.20625 34.263296,756.96875 C 33.847346,795.03418 39.749446,844.09842 128.63830,845.40625 C 229.75721,846.89400 247.78670,824.78867 257.79455,777.21875 C 268.26761,727.43745 229.96097,680.99305 228.79455,655.62500 C 227.49618,627.38721 238.81937,621.37492 244.35705,578.15625 C 249.89474,534.93758 216.12125,532.36913 216.20080,549.31250 C 216.28039,566.26993 207.86353,585.97939 182.48205,585.59375 C 155.92199,585.19017 160.80685,521.53691 154.79455,520.90625 C 149.67068,520.36878 134.91396,567.81714 108.51330,540.84375 C 82.672246,514.44215 103.36683,471.26774 87.700796,469.65625 z M 85.607046,473.84375 C 86.623776,473.79737 87.605836,473.85918 88.513296,474.37500 C 92.016676,488.60403 89.003046,504.06420 92.388296,518.53125 C 96.274656,533.83063 106.58173,551.21347 123.85705,552.87500 C 138.17069,553.05296 146.15740,539.13346 153.23205,528.75000 C 155.68953,540.70570 156.13154,553.00387 159.45080,564.78125 C 162.50742,575.56097 168.48330,588.62652 181.35705,589.34375 C 198.24855,591.40787 214.51229,579.20998 218.45080,562.87500 C 221.46588,556.92281 217.22914,547.94121 223.79455,544.21875 C 232.60188,541.56166 238.73146,552.57890 240.07580,559.93750 C 242.19543,575.47804 238.76580,591.37234 234.51330,606.31250 C 228.69601,626.98218 219.73120,649.26877 228.16955,670.56250 C 239.23963,701.20204 257.57576,731.10843 255.23205,764.84375 C 252.97695,786.71298 246.86795,811.00694 227.98205,824.53125 C 202.62270,840.13176 171.65581,843.22256 142.82580,841.28125 C 115.39661,816.62738 41.870306,776.19446 43.294546,749.18750 C 44.761666,721.36784 67.431276,690.45362 73.107046,655.84375 C 78.812116,609.96132 58.854756,565.90880 58.919546,520.25000 C 58.953776,502.65980 64.191596,480.76435 82.544546,473.96875 C 83.532716,474.05288 84.590316,473.89013 85.607046,473.84375 z " id="path2470" style="opacity:0.49999997;fill:url(#radialGradient2478);fill-opacity:1.0000000;fill-rule:evenodd;stroke:none;stroke-width:0.25000000pt;stroke-linecap:butt;stroke-linejoin:miter;stroke-opacity:1.0000000"/>
    <path d="M 351.62605 696.83105 A 2.9210331 2.9210331 0 1 1  345.78398,696.83105 A 2.9210331 2.9210331 0 1 1  351.62605 696.83105 z" id="path2692" style="fill:#ffffff;fill-opacity:1.0000000;stroke:none;stroke-width:0.31250000;stroke-linecap:round;stroke-linejoin:round;stroke-miterlimit:4.0000000;stroke-opacity:0.39215687" transform="matrix(0.750000,0.000000,0.000000,0.750000,-124.3114,179.0221)"/>
    <path d="M 87.700796,469.65625 C 71.975526,468.03870 52.620266,487.21108 54.888296,528.40625 C 57.150906,569.50267 71.450626,605.14464 70.294546,644.71875 C 69.138466,684.29286 34.639886,721.20625 34.263296,756.96875 C 33.847346,795.03418 39.749446,844.09842 128.63830,845.40625 C 229.75721,846.89400 247.78670,824.78867 257.79455,777.21875 C 268.26761,727.43745 229.96097,680.99305 228.79455,655.62500 C 227.49618,627.38721 238.81937,621.37492 244.35705,578.15625 C 249.89474,534.93758 216.12125,532.36913 216.20080,549.31250 C 216.28039,566.26993 207.86353,585.97939 182.48205,585.59375 C 155.92199,585.19017 160.80685,521.53691 154.79455,520.90625 C 149.67068,520.36878 134.91396,567.81714 108.51330,540.84375 C 82.672246,514.44215 103.36683,471.26774 87.700796,469.65625 z M 85.607046,473.84375 C 86.623776,473.79737 87.605836,473.85918 88.513296,474.37500 C 92.016676,488.60403 89.003046,504.06420 92.388296,518.53125 C 96.274656,533.83063 106.58173,551.21347 123.85705,552.87500 C 138.17069,553.05296 146.15740,539.13346 153.23205,528.75000 C 155.68953,540.70570 156.13154,553.00387 159.45080,564.78125 C 162.50742,575.56097 168.48330,588.62652 181.35705,589.34375 C 198.24855,591.40787 214.51229,579.20998 218.45080,562.87500 C 221.46588,556.92281 217.22914,547.94121 223.79455,544.21875 C 232.60188,541.56166 238.73146,552.57890 240.07580,559.93750 C 242.19543,575.47804 238.76580,591.37234 234.51330,606.31250 C 228.69601,626.98218 219.73120,649.26877 228.16955,670.56250 C 239.23963,701.20204 257.57576,731.10843 255.23205,764.84375 C 252.97695,786.71298 246.86795,811.00694 227.98205,824.53125 C 202.62270,840.13176 171.65581,843.22256 142.82580,841.28125 C 115.39661,816.62738 41.870306,776.19446 43.294546,749.18750 C 44.761666,721.36784 67.431276,690.45362 73.107046,655.84375 C 78.812116,609.96132 58.854756,565.90880 58.919546,520.25000 C 58.953776,502.65980 64.191596,480.76435 82.544546,473.96875 C 83.532716,474.05288 84.590316,473.89013 85.607046,473.84375 z " id="path2480" style="opacity:0.80000001;fill:url(#radialGradient2488);fill-opacity:1.0000000;fill-rule:evenodd;stroke:none;stroke-width:0.25000000pt;stroke-linecap:butt;stroke-linejoin:miter;stroke-opacity:1.0000000"/>
    <path d="M 133.40881,605.96252 L 144.13250,163.02196 L 172.43526,163.94127 L 174.92388,606.98409 C 175.20922,614.21503 133.28017,613.39455 133.40881,605.96252 z " id="path2544" style="opacity:0.69999999;fill:url(#radialGradient2546);fill-opacity:1.0000000;fill-rule:evenodd;stroke:none;stroke-width:0.25000000pt;stroke-linecap:butt;stroke-linejoin:miter;stroke-opacity:1.0000000"/>
    <rect height="3.4549606" id="rect2556" rx="2.3033068" ry="3.4549606" style="fill:url(#linearGradient2564);fill-opacity:1.0000000;stroke:none;stroke-width:1.2500000;stroke-linecap:round;stroke-linejoin:round;stroke-miterlimit:4.0000000;stroke-opacity:0.10169489" width="28.791338" x="143.83241" y="162.40639"/>
    <rect height="3.4549606" id="rect2566" rx="2.3033068" ry="3.4549606" style="fill:url(#linearGradient2568);fill-opacity:1.0000000;stroke:none;stroke-width:1.2500000;stroke-linecap:round;stroke-linejoin:round;stroke-miterlimit:4.0000000;stroke-opacity:0.10169489" width="28.791338" x="143.83241" y="202.40637"/>
    <rect height="3.4549606" id="rect2570" rx="2.3033068" ry="3.4549606" style="fill:url(#linearGradient2572);fill-opacity:1.0000000;stroke:none;stroke-width:1.2500000;stroke-linecap:round;stroke-linejoin:round;stroke-miterlimit:4.0000000;stroke-opacity:0.10169489" width="30.012852" x="142.61089" y="238.40637"/>
    <rect height="3.4549606" id="rect2574" rx="2.3033068" ry="3.4549606" style="fill:url(#linearGradient2576);fill-opacity:1.0000000;stroke:none;stroke-width:1.2500000;stroke-linecap:round;stroke-linejoin:round;stroke-miterlimit:4.0000000;stroke-opacity:0.10169489" width="30.827192" x="141.79655" y="272.40637"/>
    <rect height="3.4549606" id="rect2578" rx="2.3033068" ry="3.4549606" style="fill:url(#linearGradient2580);fill-opacity:1.0000000;stroke:none;stroke-width:1.2500000;stroke-linecap:round;stroke-linejoin:round;stroke-miterlimit:4.0000000;stroke-opacity:0.10169489" width="32.048706" x="140.98222" y="300.40637"/>
    <rect height="3.4549606" id="rect2582" rx="2.3033068" ry="3.4549606" style="fill:url(#linearGradient2584);fill-opacity:1.0000000;stroke:none;stroke-width:1.2500000;stroke-linecap:round;stroke-linejoin:round;stroke-miterlimit:4.0000000;stroke-opacity:0.10169489" width="32.455875" x="140.57506" y="328.40637"/>
    <rect height="3.4549606" id="rect2586" rx="2.3033068" ry="3.4549606" style="fill:url(#linearGradient2588);fill-opacity:1.0000000;stroke:none;stroke-width:1.2500000;stroke-linecap:round;stroke-linejoin:round;stroke-miterlimit:4.0000000;stroke-opacity:0.10169489" width="33.270218" x="139.76070" y="354.40637"/>
    <rect height="3.4549606" id="rect2590" rx="2.3033068" ry="3.4549606" style="fill:url(#linearGradient2592);fill-opacity:1.0000000;stroke:none;stroke-width:1.2500000;stroke-linecap:round;stroke-linejoin:round;stroke-miterlimit:4.0000000;stroke-opacity:0.10169489" width="34.084560" x="139.35353" y="376.40637"/>
    <rect height="3.4549606" id="rect2594" rx="2.3033068" ry="3.4549606" style="fill:url(#linearGradient2596);fill-opacity:1.0000000;stroke:none;stroke-width:1.2500000;stroke-linecap:round;stroke-linejoin:round;stroke-miterlimit:4.0000000;stroke-opacity:0.10169489" width="34.491734" x="138.94637" y="398.40637"/>
    <rect height="3.4549606" id="rect2598" rx="2.3033066" ry="3.4549606" style="fill:url(#linearGradient2600);fill-opacity:1.0000000;stroke:none;stroke-width:1.2500000;stroke-linecap:round;stroke-linejoin:round;stroke-miterlimit:4.0000000;stroke-opacity:0.10169489" width="35.713242" x="137.72484" y="422.40637"/>
    <rect height="3.4549606" id="rect2602" rx="2.3033068" ry="3.4549606" style="fill:url(#linearGradient2604);fill-opacity:1.0000000;stroke:none;stroke-width:1.2500000;stroke-linecap:round;stroke-linejoin:round;stroke-miterlimit:4.0000000;stroke-opacity:0.10169489" width="36.527588" x="137.31767" y="444.40637"/>
    <rect height="3.4549606" id="rect2606" rx="2.3033068" ry="3.4549606" style="fill:url(#linearGradient2608);fill-opacity:1.0000000;stroke:none;stroke-width:1.2500000;stroke-linecap:round;stroke-linejoin:round;stroke-miterlimit:4.0000000;stroke-opacity:0.10169489" width="36.527584" x="137.31767" y="464.40637"/>
    <rect height="3.4549606" id="rect2610" rx="2.3033068" ry="3.4549606" style="fill:url(#linearGradient2612);fill-opacity:1.0000000;stroke:none;stroke-width:1.2500000;stroke-linecap:round;stroke-linejoin:round;stroke-miterlimit:4.0000000;stroke-opacity:0.10169489" width="37.341927" x="136.50334" y="484.40637"/>
    <rect height="3.4549606" id="rect2614" rx="2.3033068" ry="3.4549606" style="fill:url(#linearGradient2616);fill-opacity:1.0000000;stroke:none;stroke-width:1.2500000;stroke-linecap:round;stroke-linejoin:round;stroke-miterlimit:4.0000000;stroke-opacity:0.10169489" width="38.292480" x="135.77083" y="502.40637"/>
    <rect height="3.4549606" id="rect2618" rx="2.3033068" ry="3.4549606" style="fill:url(#linearGradient2620);fill-opacity:1.0000000;stroke:none;stroke-width:1.2500000;stroke-linecap:round;stroke-linejoin:round;stroke-miterlimit:4.0000000;stroke-opacity:0.10169489" width="38.292480" x="135.48293" y="520.40637"/>
    <rect height="3.4549606" id="rect2622" rx="2.3033068" ry="3.4549606" style="fill:url(#linearGradient2624);fill-opacity:1.0000000;stroke:none;stroke-width:1.2500000;stroke-linecap:round;stroke-linejoin:round;stroke-miterlimit:4.0000000;stroke-opacity:0.10169489" width="39.156219" x="135.19502" y="538.40637"/>
    <rect height="3.4549606" id="rect2626" rx="2.3033068" ry="3.4549606" style="fill:url(#linearGradient2628);fill-opacity:1.0000000;stroke:none;stroke-width:1.2500000;stroke-linecap:round;stroke-linejoin:round;stroke-miterlimit:4.0000000;stroke-opacity:0.10169489" width="39.156219" x="134.90709" y="554.40637"/>
    <rect height="3.4549606" id="rect2630" rx="2.3033068" ry="3.4549606" style="fill:url(#linearGradient2632);fill-opacity:1.0000000;stroke:none;stroke-width:1.2500000;stroke-linecap:round;stroke-linejoin:round;stroke-miterlimit:4.0000000;stroke-opacity:0.10169489" width="39.732048" x="134.33128" y="568.40637"/>
    <rect height="3.4549606" id="rect2634" rx="2.3033068" ry="3.4549606" style="fill:url(#linearGradient2636);fill-opacity:1.0000000;stroke:none;stroke-width:1.2500000;stroke-linecap:round;stroke-linejoin:round;stroke-miterlimit:4.0000000;stroke-opacity:0.10169489" width="40.307873" x="134.33128" y="580.40637"/>
    <rect height="3.4549606" id="rect2638" rx="2.3033068" ry="3.4549606" style="fill:url(#linearGradient2640);fill-opacity:1.0000000;stroke:none;stroke-width:1.2500000;stroke-linecap:round;stroke-linejoin:round;stroke-miterlimit:4.0000000;stroke-opacity:0.10169489" width="40.883698" x="133.75545" y="592.40637"/>
    <rect height="3.4549606" id="rect2642" rx="2.3033068" ry="3.4549606" style="fill:url(#linearGradient2644);fill-opacity:1.0000000;stroke:none;stroke-width:1.2500000;stroke-linecap:round;stroke-linejoin:round;stroke-miterlimit:4.0000000;stroke-opacity:0.10169489" width="41.459526" x="133.46754" y="602.40637"/>
    <rect height="25.648729" id="rect2667" rx="2.3033080" ry="10.940708" style="fill:url(#linearGradient2677);fill-opacity:1.0000000;stroke:#000000;stroke-width:1.2500000;stroke-linecap:round;stroke-linejoin:round;stroke-miterlimit:4.0000000;stroke-opacity:0.23529412" width="51.988976" x="125.12029" y="809.80914"/>
    <path d="M 348.44640 829.78864 A 1.8907945 2.4310215 0 1 1  344.66481,829.78864 A 1.8907945 2.4310215 0 1 1  348.44640 829.78864 z" id="path2723" style="fill:url(#radialGradient2725);fill-opacity:1.0000000;stroke:none;stroke-width:0.31250000;stroke-linecap:round;stroke-linejoin:round;stroke-miterlimit:4.0000000;stroke-opacity:0.39215687" transform="translate(-180.6672,5.459770)"/>
    <path d="M 348.44640 829.78864 A 1.8907945 2.4310215 0 1 1  344.66481,829.78864 A 1.8907945 2.4310215 0 1 1  348.44640 829.78864 z" id="path2704" style="fill:url(#radialGradient2713);fill-opacity:1.0000000;stroke:none;stroke-width:0.31250000;stroke-linecap:round;stroke-linejoin:round;stroke-miterlimit:4.0000000;stroke-opacity:0.39215687" transform="translate(-211.6207,5.459770)"/>
    <path d="M 351.62605 696.83105 A 2.9210331 2.9210331 0 1 1  345.78398,696.83105 A 2.9210331 2.9210331 0 1 1  351.62605 696.83105 z" id="path2694" style="fill:#ffffff;fill-opacity:1.0000000;stroke:none;stroke-width:0.31250000;stroke-linecap:round;stroke-linejoin:round;stroke-miterlimit:4.0000000;stroke-opacity:0.39215687" transform="matrix(0.750000,0.000000,0.000000,0.750000,-115.1258,179.0221)"/>
    <rect height="3.4549606" id="rect2700" rx="2.3033068" ry="3.4549606" style="fill:url(#linearGradient2702);fill-opacity:1.0000000;stroke:none;stroke-width:1.2500000;stroke-linecap:round;stroke-linejoin:round;stroke-miterlimit:4.0000000;stroke-opacity:0.10169489" width="54.256470" x="123.91759" y="812.40637"/>
    <path d="M 147.36976,122.94450 L 135.01491,835.42207" id="path2646" style="fill:none;fill-opacity:1.0000000;fill-rule:evenodd;stroke:#b4b4b4;stroke-width:1.8750000;stroke-linecap:butt;stroke-linejoin:miter;stroke-miterlimit:4.0000000;stroke-opacity:1.0000000"/>
    <path d="M 348.44640 829.78864 A 1.8907945 2.4310215 0 1 1  344.66481,829.78864 A 1.8907945 2.4310215 0 1 1  348.44640 829.78864 z" id="path2715" style="fill:url(#radialGradient2717);fill-opacity:1.0000000;stroke:none;stroke-width:0.31250000;stroke-linecap:round;stroke-linejoin:round;stroke-miterlimit:4.0000000;stroke-opacity:0.39215687" transform="translate(-201.8967,5.459770)"/>
    <path d="M 154.55912,95.454460 L 144.78701,834.81224" id="path2648" style="fill:none;fill-opacity:0.75000000;fill-rule:evenodd;stroke:#c8c8c8;stroke-width:1.5000000;stroke-linecap:butt;stroke-linejoin:miter;stroke-miterlimit:4.0000000;stroke-opacity:1.0000000"/>
    <path d="M 367.67541 117.65639 A 7.9226346 7.9226346 0 1 1  351.83014,117.65639 A 7.9226346 7.9226346 0 1 1  367.67541 117.65639 z" id="path2358" style="opacity:0.62765956;fill:url(#radialGradient2360);fill-opacity:1.0000000;stroke:none;stroke-width:0.31250000;stroke-linecap:round;stroke-linejoin:round;stroke-miterlimit:4.0000000;stroke-opacity:0.39215687" transform="matrix(0.948607,0.000000,0.000000,1.051394,-195.1063,2.767590)"/>
    <path d="M 348.44640 829.78864 A 1.8907945 2.4310215 0 1 1  344.66481,829.78864 A 1.8907945 2.4310215 0 1 1  348.44640 829.78864 z" id="path2719" style="fill:url(#radialGradient2721);fill-opacity:1.0000000;stroke:none;stroke-width:0.31250000;stroke-linecap:round;stroke-linejoin:round;stroke-miterlimit:4.0000000;stroke-opacity:0.39215687" transform="translate(-191.2015,5.459770)"/>
    <path d="M 162.56282,65.068343 L 155.37346,835.18355" id="path2650" style="fill:none;fill-opacity:0.75000000;fill-rule:evenodd;stroke:#dcdcdc;stroke-width:1.2500000;stroke-linecap:butt;stroke-linejoin:miter;stroke-miterlimit:4.0000000;stroke-opacity:1.0000000"/>
    <path d="M 170.22921,34.821937 L 165.95991,835.42206" id="path2652" style="fill:none;fill-opacity:0.75000000;fill-rule:evenodd;stroke:#f0f0f0;stroke-width:1.0000000;stroke-linecap:butt;stroke-linejoin:miter;stroke-miterlimit:4.0000000;stroke-opacity:1.0000000"/>
    <path d="M 172.22921,34.821937 L 171.56213,159.91571 L 169.16065,610.25328 L 171.12730,610.50797 L 170.12668,808.14862 L 168.09333,810.40331 L 167.95991,835.42206" id="path2588" style="fill:none;fill-opacity:0.75000000;fill-rule:evenodd;stroke:#000000;stroke-width:1.0000000;stroke-linecap:butt;stroke-linejoin:miter;stroke-miterlimit:4.0000000;stroke-opacity:0.19607843"/>
    <path d="M 164.56282,65.068343 L 164.45049,77.101390 L 159.50780,608.55560 L 161.39547,612.58865 L 159.71046,807.08440 L 157.59813,811.11745 L 157.48579,823.15050 L 157.37346,835.18355" id="path2590" style="fill:none;fill-opacity:0.75000000;fill-rule:evenodd;stroke:#000000;stroke-width:1.2500000;stroke-linecap:butt;stroke-linejoin:miter;stroke-miterlimit:4.0000000;stroke-opacity:0.19607843"/>
    <path d="M 156.55912,95.454460 L 149.84079,607.76293 L 151.68811,611.31540 L 149.24508,808.15484 L 147.09239,811.70731 L 146.93970,823.25977 L 146.78701,834.81224" id="path2592" style="fill:none;fill-opacity:0.75000000;fill-rule:evenodd;stroke:#000000;stroke-width:1.5000000;stroke-linecap:butt;stroke-linejoin:miter;stroke-miterlimit:4.0000000;stroke-opacity:0.19607843"/>
    <path d="M 149.36976,122.94450 L 141.06885,607.64037 L 142.87580,612.77283 L 139.59404,808.02468 L 137.40100,811.15715 L 137.01491,835.42207" id="path2594" style="fill:none;fill-opacity:1.0000000;fill-rule:evenodd;stroke:#000000;stroke-width:1.8750000;stroke-linecap:butt;stroke-linejoin:miter;stroke-miterlimit:4.0000000;stroke-opacity:0.19607843"/>
    <path d="M 367.67541 117.65639 A 7.9226346 7.9226346 0 1 1  351.83014,117.65639 A 7.9226346 7.9226346 0 1 1  367.67541 117.65639 z" id="path2328" style="fill:url(#radialGradient2344);fill-opacity:1.0000000;stroke:none;stroke-width:0.31250000;stroke-linecap:round;stroke-linejoin:round;stroke-miterlimit:4.0000000;stroke-opacity:0.39215687" transform="matrix(0.845820,0.000000,0.000000,0.845820,-161.3141,24.95463)"/>
    <use height="1052.3622" id="use2362" transform="translate(8.550591,-28.09480)" width="744.09448" x="0.0000000" xlink:href="#path2358" y="0.0000000"/>
    <use height="1052.3622" id="use2352" transform="translate(8.143420,-28.90914)" width="744.09448" x="0.0000000" xlink:href="#path2328" y="0.0000000"/>
    <use height="1052.3622" id="use2364" transform="translate(15.87967,-56.18960)" width="744.09448" x="0.0000000" xlink:href="#path2358" y="0.0000000"/>
    <use height="1052.3622" id="use2354" transform="translate(16.69401,-57.41111)" width="744.09448" x="0.0000000" xlink:href="#path2328" y="0.0000000"/>
    <use height="1052.3622" id="use2366" transform="translate(24.43026,-84.69157)" width="744.09448" x="0.0000000" xlink:href="#path2358" y="0.0000000"/>
    <use height="1052.3622" id="use2356" transform="translate(25.24460,-85.09874)" width="744.09448" x="0.0000000" xlink:href="#path2328" y="0.0000000"/>
    <rect height="12.668189" id="rect2368" rx="2.0000000" ry="1.9999999" style="opacity:0.29999998;fill:#000000;fill-opacity:1.0000000;stroke:none;stroke-width:0.31250000;stroke-linecap:round;stroke-linejoin:round;stroke-miterlimit:4.0000000;stroke-opacity:0.39215687" width="2.8791339" x="141.61342" y="118.03708"/>
    <rect height="12.668180" id="rect2370" rx="1.9999930" ry="1.9999928" style="opacity:0.29999998;fill:#000000;fill-opacity:1.0000000;stroke:none;stroke-width:0.31250000;stroke-linecap:round;stroke-linejoin:round;stroke-miterlimit:4.0000000;stroke-opacity:0.39215687" transform="matrix(0.751872,-0.659309,0.659309,0.751872,0.000000,0.000000)" width="2.8791199" x="49.162312" y="165.16005"/>
    <rect height="12.668139" id="rect2374" rx="1.9999874" ry="1.9999872" style="opacity:0.29999998;fill:#000000;fill-opacity:1.0000000;stroke:none;stroke-width:0.31250000;stroke-linecap:round;stroke-linejoin:round;stroke-miterlimit:4.0000000;stroke-opacity:0.39215687" transform="matrix(-8.240314e-2,0.996599,-0.996599,-8.240314e-2,0.000000,0.000000)" width="2.8791187" x="52.268169" y="-170.78183"/>
    <rect height="12.668349" id="rect2378" rx="2.0000272" ry="2.0000269" style="opacity:0.29999998;fill:#000000;fill-opacity:1.0000000;stroke:none;stroke-width:0.31250000;stroke-linecap:round;stroke-linejoin:round;stroke-miterlimit:4.0000000;stroke-opacity:0.39215687" transform="matrix(0.893538,0.448988,-0.448988,0.893538,0.000000,0.000000)" width="2.8791606" x="166.60368" y="-46.314686"/>
    <path d="M 213.38966 739.50684 A 6.2126102 6.2126102 0 1 1  200.96444,739.50684 A 6.2126102 6.2126102 0 1 1  213.38966 739.50684 z" id="path3031" style="fill:url(#radialGradient3039);fill-opacity:1.0000000;stroke:none;stroke-width:1.9999993;stroke-linecap:round;stroke-linejoin:round;stroke-miterlimit:4.0000000;stroke-opacity:0.15760870" transform="matrix(1.260870,0.000000,0.000000,1.260870,-25.41416,-186.6046)"/>
    <path d="M 213.38966 739.50684 A 6.2126102 6.2126102 0 1 1  200.96444,739.50684 A 6.2126102 6.2126102 0 1 1  213.38966 739.50684 z" id="path3027" style="fill:url(#radialGradient3051);fill-opacity:1.0000000;stroke:none;stroke-width:1.9999993;stroke-linecap:round;stroke-linejoin:round;stroke-miterlimit:4.0000000;stroke-opacity:0.15760870" transform="translate(26.63203,4.310210)"/>
    <path d="M 213.38966 739.50684 A 6.2126102 6.2126102 0 1 1  200.96444,739.50684 A 6.2126102 6.2126102 0 1 1  213.38966 739.50684 z" id="path3041" style="fill:url(#radialGradient3043);fill-opacity:1.0000000;stroke:none;stroke-width:1.9999993;stroke-linecap:round;stroke-linejoin:round;stroke-miterlimit:4.0000000;stroke-opacity:0.15760870" transform="matrix(1.260870,0.000000,0.000000,1.260870,-26.49462,-147.6850)"/>
    <path d="M 213.38966 739.50684 A 6.2126102 6.2126102 0 1 1  200.96444,739.50684 A 6.2126102 6.2126102 0 1 1  213.38966 739.50684 z" id="path3053" style="fill:url(#radialGradient3055);fill-opacity:1.0000000;stroke:none;stroke-width:1.9999993;stroke-linecap:round;stroke-linejoin:round;stroke-miterlimit:4.0000000;stroke-opacity:0.15760870" transform="translate(25.05338,42.76581)"/>
    <path d="M 213.38966 739.50684 A 6.2126102 6.2126102 0 1 1  200.96444,739.50684 A 6.2126102 6.2126102 0 1 1  213.38966 739.50684 z" id="path3057" style="fill:url(#linearGradient3061);fill-opacity:1.0000000;stroke:none;stroke-width:1.9999993;stroke-linecap:round;stroke-linejoin:round;stroke-miterlimit:4.0000000;stroke-opacity:0.15760870" transform="matrix(0.877025,0.000000,0.000000,0.631075,52.10965,275.6049)"/>
    <path d="M 213.38966 739.50684 A 6.2126102 6.2126102 0 1 1  200.96444,739.50684 A 6.2126102 6.2126102 0 1 1  213.38966 739.50684 z" id="path3063" style="fill:url(#linearGradient3065);fill-opacity:1.0000000;stroke:none;stroke-width:1.9999993;stroke-linecap:round;stroke-linejoin:round;stroke-miterlimit:4.0000000;stroke-opacity:0.15760870" transform="matrix(0.877025,0.000000,0.000000,0.631075,50.53097,314.0604)"/>
  </g>
</svg>
