<?xml version="1.0" encoding="UTF-8" standalone="no"?>
<!-- Created with Inkscape (http://www.inkscape.org/) -->

<svg
   xmlns:dc="http://purl.org/dc/elements/1.1/"
   xmlns:cc="http://creativecommons.org/ns#"
   xmlns:rdf="http://www.w3.org/1999/02/22-rdf-syntax-ns#"
   xmlns:svg="http://www.w3.org/2000/svg"
   xmlns="http://www.w3.org/2000/svg"
   xmlns:sodipodi="http://sodipodi.sourceforge.net/DTD/sodipodi-0.dtd"
   xmlns:inkscape="http://www.inkscape.org/namespaces/inkscape"
   id="svg2"
   version="1.1"
   inkscape:version="0.91 r13725"
   xml:space="preserve"
   width="732.47809"
   height="434.70209"
   viewBox="0 0 732.47809 434.70209"
   sodipodi:docname="dense_cooccurences.svg"><metadata
     id="metadata8"><rdf:RDF><cc:Work
         rdf:about=""><dc:format>image/svg+xml</dc:format><dc:type
           rdf:resource="http://purl.org/dc/dcmitype/StillImage" /><dc:title></dc:title></cc:Work></rdf:RDF></metadata><defs
     id="defs6"><clipPath
       clipPathUnits="userSpaceOnUse"
       id="clipPath16"><path
         d="M 0,0 792,0 792,577 0,577 0,0 Z"
         id="path18"
         inkscape:connector-curvature="0" /></clipPath><clipPath
       clipPathUnits="userSpaceOnUse"
       id="clipPath22"><path
         d="m 0,0 792,0 0,576.75 -792,0 L 0,0 Z"
         id="path24"
         inkscape:connector-curvature="0" /></clipPath><clipPath
       clipPathUnits="userSpaceOnUse"
       id="clipPath34"><path
         d="M 0,0 792,0 792,577 0,577 0,0 Z"
         id="path36"
         inkscape:connector-curvature="0" /></clipPath><clipPath
       clipPathUnits="userSpaceOnUse"
       id="clipPath40"><path
         d="m 0,0 792,0 0,576.75 -792,0 L 0,0 Z"
         id="path42"
         inkscape:connector-curvature="0" /></clipPath><clipPath
       clipPathUnits="userSpaceOnUse"
       id="clipPath46"><path
         d="m 36,22.5 720,0 0,525 -720,0 0,-525 z"
         id="path48"
         inkscape:connector-curvature="0" /></clipPath></defs><sodipodi:namedview
     pagecolor="#ffffff"
     bordercolor="#666666"
     borderopacity="1"
     objecttolerance="10"
     gridtolerance="10"
     guidetolerance="10"
     inkscape:pageopacity="0"
     inkscape:pageshadow="2"
     inkscape:window-width="2560"
     inkscape:window-height="1031"
     id="namedview4"
     showgrid="false"
     fit-margin-top="0"
     fit-margin-left="0"
     fit-margin-right="0"
     fit-margin-bottom="0"
     inkscape:zoom="0.92548881"
     inkscape:cx="329.95498"
     inkscape:cy="110.9624"
     inkscape:window-x="0"
     inkscape:window-y="25"
     inkscape:window-maximized="1"
     inkscape:current-layer="g10" /><g
     id="g10"
     inkscape:groupmode="layer"
     inkscape:label="representations"
     transform="matrix(1.25,0,0,1.25,-142.15828,-85.167028)"><g
       id="g30"><g
         id="g32"
         clip-path="url(#clipPath34)"><g
           id="g38"
           clip-path="url(#clipPath40)"><g
             id="g44"
             clip-path="url(#clipPath46)"><g
               id="g50"
               transform="matrix(0.75,0,0,0.75,-101.6386,21.7135)"><path
                 d="m 540.5986,228.7708 c 0,1.3807 -0.4881,2.5592 -1.4644,3.5355 -0.9764,0.9763 -2.1549,1.4645 -3.5356,1.4645 -1.3807,0 -2.5592,-0.4882 -3.5356,-1.4645 -0.9763,-0.9763 -1.4644,-2.1548 -1.4644,-3.5355 0,-1.3808 0.4881,-2.5593 1.4644,-3.5356 0.9764,-0.9763 2.1549,-1.4645 3.5356,-1.4644 1.3807,-1e-4 2.5592,0.4881 3.5356,1.4644 0.9763,0.9763 1.4644,2.1548 1.4644,3.5356 z"
                 style="fill:#000000;fill-opacity:1;fill-rule:nonzero;stroke:none"
                 id="path52"
                 inkscape:connector-curvature="0" /><text
                 transform="translate(547.8112,226.627)"
                 style="font-variant:normal;font-weight:normal;font-size:20px;font-family:Ubuntu;-inkscape-font-specification:Ubuntu;writing-mode:lr-tb;fill:#000000;fill-opacity:1;fill-rule:nonzero;stroke:none"
                 id="text54"><tspan
                   x="0"
                   y="0"
                   id="tspan56">a</tspan></text>
<text
                 transform="translate(558.2512,226.627)"
                 style="font-variant:normal;font-weight:normal;font-size:20px;font-family:Ubuntu;-inkscape-font-specification:Ubuntu;writing-mode:lr-tb;fill:#000000;fill-opacity:1;fill-rule:nonzero;stroke:none"
                 id="text58"><tspan
                   x="0"
                   y="0"
                   id="tspan60">p</tspan></text>
<text
                 transform="translate(570.0311,226.627)"
                 style="font-variant:normal;font-weight:normal;font-size:20px;font-family:Ubuntu;-inkscape-font-specification:Ubuntu;writing-mode:lr-tb;fill:#000000;fill-opacity:1;fill-rule:nonzero;stroke:none"
                 id="text62"><tspan
                   x="0"
                   y="0"
                   id="tspan64">p</tspan></text>
<text
                 transform="translate(581.8111,226.627)"
                 style="font-variant:normal;font-weight:normal;font-size:20px;font-family:Ubuntu;-inkscape-font-specification:Ubuntu;writing-mode:lr-tb;fill:#000000;fill-opacity:1;fill-rule:nonzero;stroke:none"
                 id="text66"><tspan
                   x="0"
                   y="0"
                   id="tspan68">l</tspan></text>
<text
                 transform="translate(587.2711,226.627)"
                 style="font-variant:normal;font-weight:normal;font-size:20px;font-family:Ubuntu;-inkscape-font-specification:Ubuntu;writing-mode:lr-tb;fill:#000000;fill-opacity:1;fill-rule:nonzero;stroke:none"
                 id="text70"><tspan
                   x="0"
                   y="0"
                   id="tspan72">e</tspan></text>
</g><g
               id="g74"
               transform="matrix(0,0.75,-0.75,0,83.9769,154.6331)"><path
                 d="m 331.287,-368.0139 c 0,1.3807 -0.4882,2.5592 -1.4645,3.5356 -0.9763,0.9763 -2.1548,1.4644 -3.5355,1.4644 -1.3807,0 -2.5592,-0.4881 -3.5356,-1.4644 -0.9763,-0.9764 -1.4644,-2.1549 -1.4644,-3.5356 0,-1.3807 0.4881,-2.5592 1.4644,-3.5355 0.9764,-0.9763 2.1549,-1.4645 3.5356,-1.4645 1.3807,0 2.5592,0.4882 3.5355,1.4645 0.9763,0.9763 1.4645,2.1548 1.4645,3.5355 z"
                 style="fill:#000000;fill-opacity:1;fill-rule:nonzero;stroke:none"
                 id="path76"
                 inkscape:connector-curvature="0" /></g><g
               id="g78"
               transform="matrix(0.75,0,0,0.75,83.9769,154.6331)"><text
                 transform="translate(376.9641,348.1096)"
                 style="font-variant:normal;font-weight:normal;font-size:20px;font-family:Ubuntu;-inkscape-font-specification:Ubuntu;writing-mode:lr-tb;fill:#000000;fill-opacity:1;fill-rule:nonzero;stroke:none"
                 id="text80"><tspan
                   x="0"
                   y="0"
                   id="tspan82">r</tspan></text>
<text
                 transform="translate(384.6841,348.1096)"
                 style="font-variant:normal;font-weight:normal;font-size:20px;font-family:Ubuntu;-inkscape-font-specification:Ubuntu;writing-mode:lr-tb;fill:#000000;fill-opacity:1;fill-rule:nonzero;stroke:none"
                 id="text84"><tspan
                   x="0"
                   y="0"
                   id="tspan86">a</tspan></text>
<text
                 transform="translate(395.1241,348.1096)"
                 style="font-variant:normal;font-weight:normal;font-size:20px;font-family:Ubuntu;-inkscape-font-specification:Ubuntu;writing-mode:lr-tb;fill:#000000;fill-opacity:1;fill-rule:nonzero;stroke:none"
                 id="text88"><tspan
                   x="0"
                   y="0"
                   id="tspan90">b</tspan></text>
<text
                 transform="translate(406.9041,348.1096)"
                 style="font-variant:normal;font-weight:normal;font-size:20px;font-family:Ubuntu;-inkscape-font-specification:Ubuntu;writing-mode:lr-tb;fill:#000000;fill-opacity:1;fill-rule:nonzero;stroke:none"
                 id="text92"><tspan
                   x="0"
                   y="0"
                   id="tspan94">b</tspan></text>
<text
                 transform="translate(418.684,348.1096)"
                 style="font-variant:normal;font-weight:normal;font-size:20px;font-family:Ubuntu;-inkscape-font-specification:Ubuntu;writing-mode:lr-tb;fill:#000000;fill-opacity:1;fill-rule:nonzero;stroke:none"
                 id="text96"><tspan
                   x="0"
                   y="0"
                   id="tspan98">i</tspan></text>
<text
                 transform="translate(423.744,348.1096)"
                 style="font-variant:normal;font-weight:normal;font-size:20px;font-family:Ubuntu;-inkscape-font-specification:Ubuntu;writing-mode:lr-tb;fill:#000000;fill-opacity:1;fill-rule:nonzero;stroke:none"
                 id="text100"><tspan
                   x="0"
                   y="0"
                   id="tspan102">t</tspan></text>
</g><g
               id="g104"
               transform="matrix(0.75,0,0,0.75,227.9076,9.1294)"><path
                 d="m 322.9949,385.9764 0,-300"
                 style="fill:none;stroke:#000000;stroke-width:1;stroke-linecap:butt;stroke-linejoin:miter;stroke-miterlimit:10;stroke-dasharray:none;stroke-opacity:1"
                 id="path106"
                 inkscape:connector-curvature="0" /></g><g
               id="g108"
               transform="matrix(0,2.0625,-2.0625,0,470.1538,75.6742)"><path
                 d="M 8.7186,4.0337 -2.2073,0.016 8.7186,-4.0017 c -1.7455,2.3721 -1.7355,5.6174 0,8.0354 z"
                 style="fill:#000000;fill-opacity:1;fill-rule:evenodd;stroke:none"
                 id="path110"
                 inkscape:connector-curvature="0" /><path
                 d="M 8.7186,4.0337 -2.2073,0.016 8.7186,-4.0017 c -1.7455,2.3721 -1.7355,5.6174 0,8.0354 z"
                 style="fill:none;stroke:#000000;stroke-width:1;stroke-linecap:butt;stroke-linejoin:miter;stroke-miterlimit:10;stroke-dasharray:none;stroke-opacity:1"
                 id="path112"
                 inkscape:connector-curvature="0" /></g><g
               id="g114"
               transform="matrix(0.75,0,0,0.75,227.9076,9.1294)"><path
                 d="m 315.4509,184.7264 15,0"
                 style="fill:none;stroke:#000000;stroke-width:1;stroke-linecap:butt;stroke-linejoin:miter;stroke-miterlimit:10;stroke-dasharray:none;stroke-opacity:1"
                 id="path116"
                 inkscape:connector-curvature="0" /><path
                 d="m 321.7645,384.757 300,0"
                 style="fill:none;stroke:#000000;stroke-width:1;stroke-linecap:butt;stroke-linejoin:miter;stroke-miterlimit:10;stroke-dasharray:none;stroke-opacity:1"
                 id="path118"
                 inkscape:connector-curvature="0" /></g><g
               id="g120"
               transform="matrix(-2.0625,0,0,-2.0625,692.1685,297.6971)"><path
                 d="M 8.7186,4.0337 -2.2073,0.016 8.7186,-4.0017 c -1.7455,2.3721 -1.7355,5.6174 0,8.0354 z"
                 style="fill:#000000;fill-opacity:1;fill-rule:evenodd;stroke:none"
                 id="path122"
                 inkscape:connector-curvature="0" /><path
                 d="M 8.7186,4.0337 -2.2073,0.016 8.7186,-4.0017 c -1.7455,2.3721 -1.7355,5.6174 0,8.0354 z"
                 style="fill:none;stroke:#000000;stroke-width:1;stroke-linecap:butt;stroke-linejoin:miter;stroke-miterlimit:10;stroke-dasharray:none;stroke-opacity:1"
                 id="path124"
                 inkscape:connector-curvature="0" /></g><g
               id="g126"
               transform="matrix(0.75,0,0,0.75,227.9076,9.1294)"><path
                 d="m 523.0145,377.213 0,15"
                 style="fill:none;stroke:#000000;stroke-width:1;stroke-linecap:butt;stroke-linejoin:miter;stroke-miterlimit:10;stroke-dasharray:none;stroke-opacity:1"
                 id="path128"
                 inkscape:connector-curvature="0" /><text
                 transform="translate(303.9398,186.9395)"
                 style="font-variant:normal;font-weight:normal;font-size:12.5px;font-family:Ubuntu;-inkscape-font-specification:Ubuntu;writing-mode:lr-tb;fill:#000000;fill-opacity:1;fill-rule:nonzero;stroke:none"
                 id="text130"><tspan
                   x="0"
                   y="0"
                   id="tspan132">1</tspan></text>
<text
                 transform="translate(519.4553,406.4187)"
                 style="font-variant:normal;font-weight:normal;font-size:12.5px;font-family:Ubuntu;-inkscape-font-specification:Ubuntu;writing-mode:lr-tb;fill:#000000;fill-opacity:1;fill-rule:nonzero;stroke:none"
                 id="text134"><tspan
                   x="0"
                   y="0"
                   id="tspan136">1</tspan></text>
</g><g
               id="g138"
               transform="matrix(0.75,0,0,0.75,-206.244,138.4547)"><text
                 transform="translate(425.6075,245.1304)"
                 style="font-variant:normal;font-weight:normal;font-size:20px;font-family:Ubuntu;-inkscape-font-specification:Ubuntu;writing-mode:lr-tb;fill:#000000;fill-opacity:1;fill-rule:nonzero;stroke:none"
                 id="text140"><tspan
                   x="0"
                   y="0"
                   id="tspan142">o</tspan></text>
<text
                 transform="translate(437.4074,245.1304)"
                 style="font-variant:normal;font-weight:normal;font-size:20px;font-family:Ubuntu;-inkscape-font-specification:Ubuntu;writing-mode:lr-tb;fill:#000000;fill-opacity:1;fill-rule:nonzero;stroke:none"
                 id="text144"><tspan
                   x="0"
                   y="0"
                   id="tspan146">r</tspan></text>
<text
                 transform="translate(445.1274,245.1304)"
                 style="font-variant:normal;font-weight:normal;font-size:20px;font-family:Ubuntu;-inkscape-font-specification:Ubuntu;writing-mode:lr-tb;fill:#000000;fill-opacity:1;fill-rule:nonzero;stroke:none"
                 id="text148"><tspan
                   x="0"
                   y="0"
                   id="tspan150">a</tspan></text>
<text
                 transform="translate(455.5674,245.1304)"
                 style="font-variant:normal;font-weight:normal;font-size:20px;font-family:Ubuntu;-inkscape-font-specification:Ubuntu;writing-mode:lr-tb;fill:#000000;fill-opacity:1;fill-rule:nonzero;stroke:none"
                 id="text152"><tspan
                   x="0"
                   y="0"
                   id="tspan154">n</tspan></text>
<text
                 transform="translate(467.0474,245.1304)"
                 style="font-variant:normal;font-weight:normal;font-size:20px;font-family:Ubuntu;-inkscape-font-specification:Ubuntu;writing-mode:lr-tb;fill:#000000;fill-opacity:1;fill-rule:nonzero;stroke:none"
                 id="text156"><tspan
                   x="0"
                   y="0"
                   id="tspan158">g</tspan></text>
<text
                 transform="translate(478.6074,245.1304)"
                 style="font-variant:normal;font-weight:normal;font-size:20px;font-family:Ubuntu;-inkscape-font-specification:Ubuntu;writing-mode:lr-tb;fill:#000000;fill-opacity:1;fill-rule:nonzero;stroke:none"
                 id="text160"><tspan
                   x="0"
                   y="0"
                   id="tspan162">e</tspan></text>
</g><g
               id="g164"
               transform="matrix(0,0.75,-0.75,0,-206.244,138.4547)"><path
                 d="m 257.7708,-498.9073 c -1e-4,1.3807 -0.4882,2.5593 -1.4646,3.5356 -0.9763,0.9763 -2.1548,1.4644 -3.5354,1.4644 -1.3808,0 -2.5593,-0.4881 -3.5356,-1.4644 -0.9763,-0.9763 -1.4645,-2.1549 -1.4644,-3.5356 -1e-4,-1.3807 0.4881,-2.5591 1.4644,-3.5354 0.9763,-0.9764 2.1548,-1.4645 3.5356,-1.4646 1.3806,1e-4 2.5591,0.4882 3.5354,1.4646 0.9764,0.9763 1.4645,2.1547 1.4646,3.5354 z"
                 style="fill:#000000;fill-opacity:1;fill-rule:nonzero;stroke:none"
                 id="path166"
                 inkscape:connector-curvature="0" /></g></g></g></g></g></g></svg>